<mxfile host="app.diagrams.net" modified="2024-03-26T16:49:52.390Z" agent="Mozilla/5.0 (Windows NT 10.0; Win64; x64) AppleWebKit/537.36 (KHTML, like Gecko) Chrome/123.0.0.0 Safari/537.36" version="24.2.0" etag="jiSHuIuJT2RZpmClrrO5" type="github">
  <diagram name="PÃ¡gina-1" id="EF2kGfhIOe9jyI2xVP_A">
    <mxGraphModel>
      <root>
        <mxCell id="0" />
        <mxCell id="1" parent="0" />
      </root>
    </mxGraphModel>
  </diagram>
</mxfile>
